<svg width="528" height="172" viewBox="0 0 528 172" fill="none" xmlns="http://www.w3.org/2000/svg">
<path d="M0 0H528V20.023C528 102.866 460.843 170.023 378 170.023H150C67.1573 170.023 0 102.866 0 20.023V0Z" fill="#9A5050"/>
<ellipse cx="263.5" cy="86.9885" rx="90.5" ry="85.0115" fill="#835252" fill-opacity="0.5"/>
<path d="M528 0L0 6.03217e-05L13.4522 25.7011L517.911 25.7011L528 0Z" fill="#D9D9D9"/>
<path d="M528 0L0 6.03217e-05L13.4522 25.7011L517.911 25.7011L528 0Z" fill="#D9D9D9"/>
<path fill-rule="evenodd" clip-rule="evenodd" d="M513.382 85.0117C489.166 135.31 437.714 170.023 378.154 170.023H301.201C299.46 170.023 297.725 169.993 295.999 169.934C296.046 123.025 334.089 85.0117 381.01 85.0117H513.382Z" fill="#B33A3A"/>
</svg>
