<svg width="630" height="172" viewBox="0 0 630 172" fill="none" xmlns="http://www.w3.org/2000/svg">
<path d="M0 0H630V22C630 104.843 562.843 172 480 172H150C67.1573 172 0 104.843 0 22V0Z" fill="#9A5050"/>
<ellipse cx="307.5" cy="86" rx="78.5" ry="86" fill="#835252" fill-opacity="0.5"/>
<path fill-rule="evenodd" clip-rule="evenodd" d="M572.635 140.009C547.196 160.029 515.187 172.001 480.414 172.001H149C114.466 172.001 82.6573 160.193 57.3032 140.419L572.635 140.009Z" fill="#D9D9D9"/>
<path d="M630 0L0 6.03217e-05L16.051 26L617.962 25.9999L630 0Z" fill="#D9D9D9"/>
<path d="M630 0L0 6.03217e-05L16.051 26L617.962 25.9999L630 0Z" fill="#D9D9D9"/>
</svg>
