<svg width="878" height="279" viewBox="0 0 878 279" fill="none" xmlns="http://www.w3.org/2000/svg">
<path d="M878 195L0 195L1.23248e-05 80C1.706e-05 35.8172 35.8172 9.76902e-07 80 4.12769e-06L798 5.53301e-05C842.183 5.84809e-05 878 35.8173 878 80L878 195Z" fill="white"/>
<path d="M0 109.388L452 109.388V199C452 243.183 416.183 279 372 279H9.00001C4.02945 279 0 274.971 0 270L0 109.388Z" fill="white"/>
<path d="M878 109.388H818V227.852C818 256.1 840.9 279 869.148 279V279C874.037 279 878 275.037 878 270.148V109.388Z" fill="white"/>
</svg>
