<svg width="811" height="448" viewBox="0 0 811 448" fill="none" xmlns="http://www.w3.org/2000/svg">
<path d="M0 88.2822H811V348C811 403.228 766.228 448 711 448H100C44.7715 448 0 403.228 0 348V88.2822Z" fill="white"/>
<path d="M0 88.2822H811V300.712C811 341.305 778.093 374.212 737.5 374.212H80C35.8172 374.212 0 338.394 0 294.212V88.2822Z" fill="white"/>
<path d="M0 0H25C36.0457 0 45 8.9543 45 20V88.2824H0V0Z" fill="white"/>
<path d="M811 0H786C774.954 0 766 8.9543 766 20V88.2824H811V0Z" fill="white"/>
</svg>
