<svg width="878" height="523" viewBox="0 0 878 523" fill="none" xmlns="http://www.w3.org/2000/svg">
<rect width="8" height="23" rx="4" transform="matrix(-1 0 0 1 829 158)" fill="white"/>
<rect width="8" height="23" rx="4" transform="matrix(-1 0 0 1 853 135)" fill="white"/>
<rect width="8" height="23" rx="4" transform="matrix(-1 0 0 1 853 181)" fill="white"/>
<rect width="8" height="23" rx="4" transform="matrix(-1 0 0 1 863 224)" fill="white"/>
<rect width="8" height="23" rx="4" transform="matrix(-1 0 0 1 853 270)" fill="white"/>
<rect width="8" height="23" rx="4" transform="matrix(-1 0 0 1 870 299)" fill="white"/>
<rect width="8" height="23" rx="4" transform="matrix(-1 0 0 1 845 322)" fill="white"/>
<rect width="8" height="23" rx="4" transform="matrix(-1 0 0 1 829 334)" fill="white"/>
<rect width="8" height="23" rx="4" transform="matrix(-1 0 0 1 813 364)" fill="white"/>
<rect width="8" height="23" rx="4" transform="matrix(-1 0 0 1 862 346)" fill="white"/>
<rect width="8" height="23" rx="4" transform="matrix(-1 0 0 1 833 391)" fill="white"/>
<rect width="8" height="23" rx="4" transform="matrix(-1 0 0 1 731 375)" fill="white"/>
<rect width="8" height="23" rx="4" transform="matrix(-1 0 0 1 706 387)" fill="white"/>
<rect width="8" height="23" rx="4" transform="matrix(-1 0 0 1 756 399)" fill="white"/>
<rect width="8" height="23" rx="4" transform="matrix(-1 0 0 1 783 422)" fill="white"/>
<rect width="8" height="23" rx="4" transform="matrix(-1 0 0 1 795 387)" fill="white"/>
<rect width="8" height="23" rx="4" transform="matrix(-1 0 0 1 813 411)" fill="white"/>
<rect width="8" height="23" rx="4" transform="matrix(-1 0 0 1 748 433)" fill="white"/>
<rect width="8" height="23" rx="4" transform="matrix(-1 0 0 1 694 429)" fill="white"/>
<rect width="8" height="23" rx="4" transform="matrix(-1 0 0 1 694 429)" fill="white"/>
<rect width="8" height="23" rx="4" transform="matrix(-1 0 0 1 717 457)" fill="white"/>
<rect width="8" height="23" rx="4" transform="matrix(-1 0 0 1 660 429)" fill="white"/>
<rect width="8" height="23" rx="4" transform="matrix(-1 0 0 1 679 461)" fill="white"/>
<rect width="8" height="23" rx="4" transform="matrix(-1 0 0 1 664 391)" fill="white"/>
<rect width="8" height="23" rx="4" transform="matrix(-1 0 0 1 645 353)" fill="white"/>
<rect width="8" height="23" rx="4" transform="matrix(-1 0 0 1 660 299)" fill="white"/>
<rect width="8" height="23" rx="4" transform="matrix(-1 0 0 1 634 284)" fill="white"/>
<rect width="8" height="23" rx="4" transform="matrix(-1 0 0 1 656 258)" fill="white"/>
<rect width="8" height="23" rx="4" transform="matrix(-1 0 0 1 633 232)" fill="white"/>
<rect width="8" height="23" rx="4" transform="matrix(-1 0 0 1 660 213)" fill="white"/>
<rect width="8" height="23" rx="4" transform="matrix(-1 0 0 1 641 318)" fill="white"/>
<rect width="8" height="23" rx="4" transform="matrix(-1 0 0 1 638 395)" fill="white"/>
<rect width="8" height="23" rx="4" transform="matrix(-1 0 0 1 619 429)" fill="white"/>
<rect width="8" height="23" rx="4" transform="matrix(-1 0 0 1 634 456)" fill="white"/>
<rect width="8" height="23" rx="4" transform="matrix(-1 0 0 1 603 363)" fill="white"/>
<rect width="8" height="23" rx="4" transform="matrix(-1 0 0 1 603 323)" fill="white"/>
<rect width="8" height="23" rx="4" transform="matrix(-1 0 0 1 615 276)" fill="white"/>
<rect width="8" height="23" rx="4" transform="matrix(-1 0 0 1 589 258)" fill="white"/>
<rect width="8" height="23" rx="4" transform="matrix(-1 0 0 1 545 446)" fill="white"/>
<rect width="8" height="23" rx="4" transform="matrix(-1 0 0 1 516 342)" fill="white"/>
<rect width="8" height="23" rx="4" transform="matrix(-1 0 0 1 503 398)" fill="white"/>
<rect width="8" height="23" rx="4" transform="matrix(-1 0 0 1 565 329)" fill="white"/>
<rect width="8" height="23" rx="4" transform="matrix(-1 0 0 1 512 458)" fill="white"/>
<rect width="8" height="23" rx="4" transform="matrix(-1 0 0 1 541 310)" fill="white"/>
<rect width="8" height="23" rx="4" transform="matrix(-1 0 0 1 545 360)" fill="white"/>
<rect width="8" height="23" rx="4" transform="matrix(-1 0 0 1 589 299)" fill="white"/>
<rect width="8" height="23" rx="4" transform="matrix(-1 0 0 1 561 281)" fill="white"/>
<rect width="8" height="23" rx="4" transform="matrix(-1 0 0 1 530 383)" fill="white"/>
<rect width="8" height="23" rx="4" transform="matrix(-1 0 0 1 561 399)" fill="white"/>
<rect width="8" height="23" rx="4" transform="matrix(-1 0 0 1 576 368)" fill="white"/>
<rect width="8" height="23" rx="4" transform="matrix(-1 0 0 1 611 399)" fill="white"/>
<rect width="8" height="23" rx="4" transform="matrix(-1 0 0 1 530 422)" fill="white"/>
<rect width="8" height="23" rx="4" transform="matrix(-1 0 0 1 588 435)" fill="white"/>
<rect width="8" height="23" rx="4" transform="matrix(-1 0 0 1 721 422)" fill="white"/>
<rect width="8" height="23" rx="4" transform="matrix(-1 0 0 1 791 189)" fill="white"/>
<rect width="8" height="23" rx="4" transform="matrix(-1 0 0 1 825 224)" fill="white"/>
<rect width="8" height="23" rx="4" transform="matrix(-1 0 0 1 771 235)" fill="white"/>
<rect width="8" height="23" rx="4" transform="matrix(-1 0 0 1 741 178)" fill="white"/>
<rect width="8" height="23" rx="4" transform="matrix(-1 0 0 1 733 224)" fill="white"/>
<rect width="8" height="23" rx="4" transform="matrix(-1 0 0 1 702 283)" fill="white"/>
<rect width="8" height="23" rx="4" transform="matrix(-1 0 0 1 698 201)" fill="white"/>
<rect width="8" height="23" rx="4" transform="matrix(-1 0 0 1 679 322)" fill="white"/>
<rect width="8" height="23" rx="4" transform="matrix(-1 0 0 1 694 356)" fill="white"/>
<rect width="8" height="23" rx="4" transform="matrix(-1 0 0 1 687 247)" fill="white"/>
<rect width="8" height="23" rx="4" transform="matrix(-1 0 0 1 764 318)" fill="white"/>
<rect width="8" height="23" rx="4" transform="matrix(-1 0 0 1 795 341)" fill="white"/>
<rect width="8" height="23" rx="4" transform="matrix(-1 0 0 1 767 364)" fill="white"/>
<rect width="8" height="23" rx="4" transform="matrix(-1 0 0 1 729 329)" fill="white"/>
<rect width="8" height="23" rx="4" transform="matrix(-1 0 0 1 795 260)" fill="white"/>
<rect width="8" height="23" rx="4" transform="matrix(-1 0 0 1 756 272)" fill="white"/>
<rect width="8" height="23" rx="4" transform="matrix(-1 0 0 1 817 295)" fill="white"/>
<rect x="52.9995" y="152" width="8" height="23" rx="4" fill="white"/>
<rect x="28.999" y="129" width="8" height="23" rx="4" fill="white"/>
<rect x="28.999" y="175" width="8" height="23" rx="4" fill="white"/>
<rect x="18.9995" y="218" width="8" height="23" rx="4" fill="white"/>
<rect x="28.999" y="264" width="8" height="23" rx="4" fill="white"/>
<rect x="11.9995" y="293" width="8" height="23" rx="4" fill="white"/>
<rect x="36.999" y="316" width="8" height="23" rx="4" fill="white"/>
<rect x="52.9995" y="328" width="8" height="23" rx="4" fill="white"/>
<rect x="68.9995" y="358" width="8" height="23" rx="4" fill="white"/>
<rect x="19.9995" y="340" width="8" height="23" rx="4" fill="white"/>
<rect x="48.9995" y="385" width="8" height="23" rx="4" fill="white"/>
<rect x="150.999" y="369" width="8" height="23" rx="4" fill="white"/>
<rect x="176" y="381" width="8" height="23" rx="4" fill="white"/>
<rect x="126" y="393" width="8" height="23" rx="4" fill="white"/>
<rect x="99" y="416" width="8" height="23" rx="4" fill="white"/>
<rect x="86.999" y="381" width="8" height="23" rx="4" fill="white"/>
<rect x="68.9995" y="405" width="8" height="23" rx="4" fill="white"/>
<rect x="134" y="427" width="8" height="23" rx="4" fill="white"/>
<rect x="188" y="423" width="8" height="23" rx="4" fill="white"/>
<rect x="188" y="423" width="8" height="23" rx="4" fill="white"/>
<rect x="164.999" y="451" width="8" height="23" rx="4" fill="white"/>
<rect x="221.999" y="423" width="8" height="23" rx="4" fill="white"/>
<rect x="203" y="455" width="8" height="23" rx="4" fill="white"/>
<rect x="218" y="385" width="8" height="23" rx="4" fill="white"/>
<rect x="236.999" y="347" width="8" height="23" rx="4" fill="white"/>
<rect x="221.999" y="293" width="8" height="23" rx="4" fill="white"/>
<rect x="247.999" y="278" width="8" height="23" rx="4" fill="white"/>
<rect x="226" y="252" width="8" height="23" rx="4" fill="white"/>
<rect x="248.999" y="226" width="8" height="23" rx="4" fill="white"/>
<rect x="221.999" y="207" width="8" height="23" rx="4" fill="white"/>
<rect x="240.999" y="312" width="8" height="23" rx="4" fill="white"/>
<rect x="243.999" y="389" width="8" height="23" rx="4" fill="white"/>
<rect x="262.999" y="423" width="8" height="23" rx="4" fill="white"/>
<rect x="247.999" y="450" width="8" height="23" rx="4" fill="white"/>
<rect x="278.999" y="357" width="8" height="23" rx="4" fill="white"/>
<rect x="278.999" y="317" width="8" height="23" rx="4" fill="white"/>
<rect x="267" y="270" width="8" height="23" rx="4" fill="white"/>
<rect x="292.999" y="252" width="8" height="23" rx="4" fill="white"/>
<rect x="337" y="440" width="8" height="23" rx="4" fill="white"/>
<rect x="366" y="336" width="8" height="23" rx="4" fill="white"/>
<rect x="379" y="392" width="8" height="23" rx="4" fill="white"/>
<rect x="317" y="323" width="8" height="23" rx="4" fill="white"/>
<rect x="369.999" y="452" width="8" height="23" rx="4" fill="white"/>
<rect x="340.999" y="304" width="8" height="23" rx="4" fill="white"/>
<rect x="337" y="354" width="8" height="23" rx="4" fill="white"/>
<rect x="292.999" y="293" width="8" height="23" rx="4" fill="white"/>
<rect x="320.999" y="275" width="8" height="23" rx="4" fill="white"/>
<rect x="352" y="377" width="8" height="23" rx="4" fill="white"/>
<rect x="320.999" y="393" width="8" height="23" rx="4" fill="white"/>
<rect x="305.999" y="362" width="8" height="23" rx="4" fill="white"/>
<rect x="270.999" y="393" width="8" height="23" rx="4" fill="white"/>
<rect x="352" y="416" width="8" height="23" rx="4" fill="white"/>
<rect x="294" y="429" width="8" height="23" rx="4" fill="white"/>
<rect x="310" y="450" width="8" height="23" rx="4" fill="white"/>
<rect x="402" y="428" width="8" height="23" rx="4" fill="white"/>
<rect x="405.999" y="375" width="8" height="23" rx="4" fill="white"/>
<rect x="394" y="316" width="8" height="23" rx="4" fill="white"/>
<rect x="439" y="394" width="8" height="23" rx="4" fill="white"/>
<rect x="462.999" y="319" width="8" height="23" rx="4" fill="white"/>
<rect x="495.999" y="284" width="8" height="23" rx="4" fill="white"/>
<rect x="530" y="258" width="8" height="23" rx="4" fill="white"/>
<rect x="479" y="252" width="8" height="23" rx="4" fill="white"/>
<rect x="424.999" y="246" width="8" height="23" rx="4" fill="white"/>
<rect x="405.999" y="278" width="8" height="23" rx="4" fill="white"/>
<rect x="363.999" y="273" width="8" height="23" rx="4" fill="white"/>
<rect x="363.999" y="273" width="8" height="23" rx="4" fill="white"/>
<rect x="448.999" y="432" width="8" height="23" rx="4" fill="white"/>
<rect x="448.999" y="432" width="8" height="23" rx="4" fill="white"/>
<rect x="424.999" y="461" width="8" height="23" rx="4" fill="white"/>
<rect x="474.999" y="447" width="8" height="23" rx="4" fill="white"/>
<rect x="467" y="391" width="8" height="23" rx="4" fill="white"/>
<rect x="439" y="352" width="8" height="23" rx="4" fill="white"/>
<rect x="490.999" y="316" width="8" height="23" rx="4" fill="white"/>
<rect x="448.999" y="289" width="8" height="23" rx="4" fill="white"/>
<rect x="161" y="416" width="8" height="23" rx="4" fill="white"/>
<rect x="90.9995" y="183" width="8" height="23" rx="4" fill="white"/>
<rect x="56.999" y="218" width="8" height="23" rx="4" fill="white"/>
<rect x="111" y="229" width="8" height="23" rx="4" fill="white"/>
<rect x="141" y="172" width="8" height="23" rx="4" fill="white"/>
<rect x="148.999" y="218" width="8" height="23" rx="4" fill="white"/>
<rect x="179.999" y="277" width="8" height="23" rx="4" fill="white"/>
<rect x="158.999" y="257" width="8" height="23" rx="4" fill="white"/>
<rect x="722" y="295" width="8" height="23" rx="4" fill="white"/>
<rect x="783" y="304" width="8" height="23" rx="4" fill="white"/>
<rect x="783" y="146" width="8" height="23" rx="4" fill="white"/>
<rect x="184" y="195" width="8" height="23" rx="4" fill="white"/>
<rect x="203" y="316" width="8" height="23" rx="4" fill="white"/>
<rect x="188" y="350" width="8" height="23" rx="4" fill="white"/>
<rect x="195" y="241" width="8" height="23" rx="4" fill="white"/>
<rect x="118" y="312" width="8" height="23" rx="4" fill="white"/>
<rect x="86.999" y="335" width="8" height="23" rx="4" fill="white"/>
<rect x="114.999" y="358" width="8" height="23" rx="4" fill="white"/>
<rect x="153" y="323" width="8" height="23" rx="4" fill="white"/>
<rect x="86.999" y="254" width="8" height="23" rx="4" fill="white"/>
<rect x="126" y="266" width="8" height="23" rx="4" fill="white"/>
<rect x="64.999" y="289" width="8" height="23" rx="4" fill="white"/>
<rect x="432.999" y="316" width="8" height="23" rx="4" fill="white"/>
<rect x="482.999" y="357" width="8" height="23" rx="4" fill="white"/>
</svg>
